<svg width="1277" height="133" viewBox="0 0 1277 133" fill="none" xmlns="http://www.w3.org/2000/svg">
<path d="M75.9954 64.8937C77.6948 66.3218 79.4896 67.6458 81.0648 69.1968C82.7737 70.8803 84.5686 72.5921 85.781 74.616C87.9482 78.2005 86.6785 81.5486 82.8883 83.3455C82.4205 83.5631 81.9432 83.8279 81.4467 83.913C76.1291 84.8493 73.9524 88.5093 72.7877 93.2949C71.6993 97.7589 71.8425 102.166 72.7877 106.573C73.4273 109.534 74.783 110.366 77.8762 109.959C83.2225 109.26 87.0126 105.997 89.5521 101.712C91.977 97.6076 93.514 92.9828 95.4043 88.5755C96.044 87.0812 96.4067 85.4451 97.1705 84.0265C98.4689 81.6242 101.027 80.4893 103.5 80.9243C106.116 81.3878 108.006 83.4306 108.426 86.249C110.985 103.32 113.62 120.372 118.842 136.904C118.918 137.141 118.88 137.405 118.909 138.02C117.353 138.02 115.844 138.02 114.336 138.02C112.78 138.02 111.233 138.02 109.286 138.02C106.927 127.683 104.598 117.421 102.183 106.819C101.323 107.964 100.636 108.91 99.9295 109.817C93.5427 118.027 82.9934 121.318 74.0002 117.951C70.8497 116.769 68.4152 114.773 66.9736 111.785C62.0856 101.637 63.1453 91.7061 68.8067 82.2768C70.1432 80.0543 72.7591 78.5978 75.0599 76.5454C72.6063 74.3796 69.9236 71.9017 67.1168 69.5657C64.5965 67.4661 61.8851 65.5841 59.3648 63.494C58.0473 62.4063 56.7107 61.2052 55.8133 59.796C53.6079 56.3534 55.3073 52.2772 59.317 51.3125C60.8827 50.9342 62.5821 50.9341 64.205 50.9814C75.7282 51.3692 86.5352 54.6699 97.1323 58.8974C103.634 61.4983 110.164 64.0614 116.751 66.4163C118.183 66.9271 119.949 66.5014 121.563 66.5109C120.971 65.026 120.675 63.3236 119.749 62.0847C115.472 56.3439 110.097 51.861 103.825 48.2765C85.0555 37.561 64.6919 33.7874 43.3164 34.1941C42.3808 34.213 41.4452 34.544 40.5096 34.5629C39.364 34.5913 37.7506 34.8562 37.1682 34.2509C36.4617 33.5132 36.013 31.546 36.519 30.8367C37.7601 29.087 39.3544 27.2712 41.2352 26.3443C49.6078 22.2019 58.5914 21.152 67.8329 22.1356C84.4063 23.9042 99.3376 30.08 113.152 39.0743C120.532 43.8882 126.088 50.3383 128.924 58.6705C130.107 62.1698 130.432 66.0286 130.68 69.7549C130.842 72.2328 128.78 73.4623 126.546 74.0675C120.608 75.6564 114.67 75.3822 108.818 73.7366C98.8221 70.9182 88.8647 67.939 78.8882 65.0544C78.0099 64.799 77.1029 64.6856 76.2055 64.5153C76.1291 64.6383 76.0623 64.7613 75.9954 64.8937Z" fill="#2916C8"/>
<path d="M159.312 88.5502C157.286 81.1954 155.24 74.127 153.425 66.9918C152.923 65.0146 152.875 62.8464 153.001 60.7928C153.474 53.1323 160.075 47.7451 167.68 49.302C171.173 50.0184 174.831 51.4894 177.639 53.629C183.111 57.784 188.168 62.5025 193.148 67.2402C197.501 71.3857 201.37 76.0278 205.723 80.1733C211.552 85.7229 218.105 90.1644 226.395 91.2915C233.923 92.3136 237.551 89.7727 238.68 82.3797C239.182 79.0748 240.225 75.512 236.808 72.7611C236.441 72.465 236.847 70.5642 237.455 69.8861C240.302 66.7149 244.934 67.7178 246.797 71.8919C248.968 76.7442 249.026 81.8544 248.119 86.9741C246.498 96.0865 240.36 101.665 231.066 102.763C224.349 103.556 217.999 102.228 211.793 99.7925C202.818 96.2584 194.876 91.0813 187.464 85.0255C183.295 81.6156 179.029 78.3106 174.802 74.958C174.599 75.0821 174.406 75.1968 174.204 75.3209C174.474 76.1519 174.705 76.9926 175.005 77.8045C176.327 81.3864 177.958 84.8823 178.942 88.5502C180.93 95.9528 177.089 101.435 169.436 102.601C165.971 103.126 162.458 103.394 159.042 104.129C152.557 105.524 150.009 108.752 150.057 115.324C150.105 122.277 151.717 128.897 154.825 135.153C155.24 135.984 155.606 136.834 156.157 138.009C151.302 138.009 146.776 138.057 142.259 137.952C141.709 137.942 140.908 137.207 140.667 136.624C137.202 128.314 135.34 119.67 136.459 110.701C137.724 100.576 143.485 93.7272 153.232 90.2981C155.269 89.5722 157.411 89.0946 159.312 88.5502Z" fill="#FEEE5F"/>
<path d="M263.193 137.961C262.325 137.961 261.485 137.961 260.636 137.961C237.241 137.961 213.847 137.931 190.462 138.02C188.376 138.029 187.517 137.352 186.81 135.369C185.677 132.208 184.186 129.174 182.714 126.17C179.534 119.681 182.921 113.821 189.877 114.459C207.279 116.049 224.68 117.728 242.026 119.829C246.414 120.359 250.84 122.126 254.851 124.168C259.843 126.701 262.646 132.021 263.193 137.961Z" fill="black"/>
<path d="M12.9751 88.9863C10.904 87.7382 8.38349 86.8338 6.84971 85.1606C3.12761 81.0906 1.05652 76.1704 0.13821 70.8975C-0.731257 65.8598 2.57078 62.848 8.09043 63.7072C16.0426 64.9372 23.9753 66.2939 31.9178 67.6054C37.1541 68.4646 42.3904 69.3329 47.617 70.2192C48.3986 70.3549 49.1801 70.5538 49.9128 70.8251C53.0683 71.9647 54.729 74.2982 54.4164 77.0748C54.1136 79.7881 51.8666 81.7779 48.506 82.194C45.7804 82.5377 43.0547 82.8361 40.3095 83.0713C32.074 83.7677 23.9069 84.7083 16.2478 87.8648C15.3783 88.2266 14.3623 88.2627 13.4147 88.4526C13.2779 88.6335 13.1314 88.8145 12.9751 88.9863Z" fill="#FE6A46"/>
<path d="M26.3958 112.578C26.226 112.578 26.0373 112.623 25.8863 112.569C19.4999 110.647 13.2455 108.42 8.26463 103.956C6.3402 102.223 7.33071 99.1693 9.96264 98.6304C12.8776 98.0377 15.8774 97.7054 18.8584 97.4808C25.0845 96.9959 31.32 96.6277 37.5555 96.2684C39.9328 96.1337 42.0176 96.7535 43.0836 99.0166C44.1307 101.244 43.3571 103.229 41.7723 104.881C37.6405 109.192 32.3294 111.473 26.3958 112.578Z" fill="black"/>
<path d="M48.0047 128.94C44.2171 128.48 40.3821 128.226 36.6607 127.437C35.2309 127.137 33.5265 125.85 32.9015 124.554C32.002 122.713 33.9431 121.745 35.3351 120.947C37.8539 119.5 40.3442 117.979 42.9956 116.823C45.7605 115.621 47.5407 116.231 49.2073 118.72C50.3814 120.486 51.4041 122.374 52.3037 124.291C53.4305 126.742 51.6409 128.414 48.0047 128.94Z" fill="black"/>
<path d="M29.0422 8.61438C29.0139 11.9782 28.166 14.3709 25.6412 15.6824C23.2106 16.9439 20.9872 16.3131 18.9712 14.5511C18.5095 14.1507 18.0291 13.7702 17.5674 13.3698C14.7883 10.937 13.865 7.82344 14.9861 4.68989C16.0695 1.67649 18.9147 -0.185541 22.1178 0.0146858C25.3869 0.214912 27.7798 2.34735 28.6559 5.92139C28.9103 6.96257 28.9668 8.06375 29.0422 8.61438Z" fill="black"/>
<path d="M61.9269 128.939C59.7792 128.897 58.0068 126.682 58.0866 124.129C58.1585 121.735 59.6515 119.881 61.5357 119.86C63.6434 119.838 65.3759 122.031 65.344 124.68C65.3121 127.106 63.8111 128.971 61.9269 128.939Z" fill="black"/>
<path d="M1205.1 103.069C1199.78 101.398 1194.45 100.34 1189.74 98.0459C1185.86 96.1523 1183.75 96.8457 1181.1 99.8329C1172.37 109.665 1163.33 119.214 1154.61 129.046C1152.93 130.931 1151.42 131.98 1148.94 131.633C1147.83 131.482 1146.69 131.607 1145.08 131.607C1145.62 130.7 1145.96 130.042 1146.38 129.429C1154.92 116.618 1164.79 104.936 1175.8 94.1964C1177.7 92.3473 1179.52 90.4002 1181.34 88.4711C1183.42 86.2485 1186.12 85.8128 1188.69 86.7908C1203.73 92.5072 1219.72 93.174 1235.33 95.8322C1240.24 96.6679 1242.71 98.926 1242.98 103.94C1243.46 112.795 1242.49 121.516 1240 130.042C1239.81 130.673 1238.93 131.509 1238.32 131.545C1235.69 131.713 1233.04 131.616 1230.14 131.616C1230.42 128.371 1230.73 125.339 1230.91 122.307C1231.18 118.04 1231.33 113.755 1231.58 109.488C1231.66 108.083 1231.15 107.55 1229.71 107.336C1225.42 106.687 1221.12 105.923 1216.87 105.025C1215.04 104.634 1214.04 104.945 1213.51 106.856C1211.41 114.377 1209.21 121.881 1207.06 129.393C1206.86 130.078 1206.72 130.78 1206.54 131.536C1204.55 131.536 1202.63 131.536 1200.37 131.536C1200.69 121.783 1202.43 112.341 1205.1 103.069Z" fill="black"/>
<path d="M1277.52 60.558C1277.52 65.3565 1277.52 70.1373 1277.52 74.9269C1277.52 77.4147 1277.37 79.9201 1277.57 82.399C1277.74 84.5238 1276.85 85.5154 1275.07 86.4185C1261.42 93.3418 1242.07 89.7208 1231.85 78.2557C1224.29 69.792 1225.22 59.9294 1234.24 53.015C1235.7 51.8994 1237.24 50.8901 1238.74 49.8543C1240.39 48.7122 1240.77 47.3665 1239.22 45.9146C1237.3 44.1262 1235.37 42.3024 1233.25 40.7885C1232.48 40.2307 1231.09 40.6203 1230.04 40.3547C1229.17 40.1333 1227.98 39.8058 1227.62 39.1418C1226.11 36.3618 1227.15 32.6523 1229.97 31.2181C1231.53 30.4302 1233.53 29.8015 1235.19 30.0583C1242.33 31.1649 1247.78 34.9542 1250.61 41.8155C1252.53 46.4458 1251.63 50.9521 1248.18 54.5466C1246.23 56.5828 1243.71 58.0879 1241.38 59.7434C1240.28 60.5314 1239 61.036 1237.89 61.8151C1234.3 64.3294 1234.03 67.5432 1237.1 70.6861C1243.51 77.2641 1253.69 79.1056 1262.01 75.1747C1268.09 72.2974 1272.85 67.9416 1276.2 62.0364C1276.48 61.5495 1276.77 61.0714 1277.07 60.6022C1277.09 60.5579 1277.21 60.5846 1277.52 60.558Z" fill="#2916C8"/>
<path d="M1187.83 74.6272C1178.72 73.3071 1169.6 72.0491 1160.51 70.6322C1157.3 70.1287 1155.54 68.2559 1155.34 65.7585C1155.15 63.3966 1156.57 61.4434 1159.57 60.2714C1163.06 58.9134 1166.69 57.8989 1170.1 56.3634C1175.25 54.0491 1180.26 51.409 1185.33 48.9084C1186.4 48.3812 1187.42 47.6878 1188.54 47.3179C1191.7 46.2864 1194.47 47.8771 1195.39 51.1306C1195.52 51.5993 1195.67 52.0785 1195.68 52.5536C1195.77 56.732 1196.96 60.5655 1198.48 64.4387C1200.85 70.4666 1197.98 74.6296 1191.58 75.0833C1190.32 75.1716 1189.05 75.1164 1187.77 75.1232C1187.8 74.9555 1187.81 74.7869 1187.83 74.6272Z" fill="#FE6A46"/>
<path d="M1110.6 131.691C1114.5 120.641 1118.68 110.175 1127.47 102.345C1129.71 100.354 1132.54 98.7793 1135.38 97.7176C1138.36 96.6028 1141.46 97.2399 1143.6 99.9118C1145.69 102.513 1145.38 105.335 1143.87 108.051C1142.81 109.945 1141.56 111.75 1140.26 113.501C1136.05 119.243 1131.82 124.95 1127.53 130.63C1127.12 131.169 1126.23 131.638 1125.55 131.647C1120.72 131.727 1115.88 131.691 1110.6 131.691Z" fill="#FEEE5F"/>
<path d="M1255.81 131.699C1255.89 124.772 1256.03 117.961 1259.5 111.822C1262.23 106.982 1266.71 105.378 1272.75 106.74C1277.59 107.834 1277.59 107.834 1277.59 112.799C1277.59 119.045 1277.59 125.283 1277.59 131.699C1270.33 131.699 1263.21 131.699 1255.81 131.699Z" fill="black"/>
<path d="M1087 131.645C1087.06 123.28 1087.77 115.266 1090.65 107.621C1091.6 105.084 1093.36 102.755 1095.12 100.623C1096.17 99.3546 1097.84 98.3831 1099.43 97.7715C1104.89 95.6847 1109.74 99.5164 1108.62 105.093C1108.04 107.953 1106.93 110.715 1105.91 113.476C1103.92 118.846 1101.76 124.153 1099.81 129.532C1099.26 131.052 1098.65 131.789 1096.83 131.69C1093.66 131.52 1090.47 131.645 1087 131.645Z" fill="#FEEE5F"/>
<path d="M1214.66 55.4242C1211.34 55.4655 1208.65 53.3611 1208.61 50.6956C1208.57 47.7 1212.02 44.6301 1215.54 44.5311C1218.74 44.4403 1221.27 46.6107 1221.32 49.4908C1221.36 52.701 1218.37 55.3747 1214.66 55.4242Z" fill="black"/>
</svg>
