<svg width="460" height="720" viewBox="0 0 460 720" fill="none" xmlns="http://www.w3.org/2000/svg">
<path d="M75.9954 73.1265C77.6948 71.6984 79.4896 70.3744 81.0648 68.8233C82.7737 67.1398 84.5686 65.428 85.781 63.4041C87.9482 59.8196 86.6785 56.4715 82.8883 54.6746C82.4205 54.4571 81.9432 54.1923 81.4467 54.1072C76.1291 53.1709 73.9524 49.5108 72.7877 44.7252C71.6993 40.2612 71.8425 35.8539 72.7877 31.4467C73.4273 28.4864 74.783 27.6541 77.8762 28.0608C83.2225 28.7606 87.0126 32.0236 89.5521 36.3079C91.977 40.4125 93.514 45.0373 95.4043 49.4446C96.044 50.9389 96.4067 52.575 97.1705 53.9937C98.4689 56.3959 101.027 57.5309 103.5 57.0958C106.116 56.6324 108.006 54.5895 108.426 51.7711C110.985 34.7001 113.62 17.6479 118.842 1.11594C118.918 0.879496 118.88 0.614747 118.909 5.14935e-07C117.353 5.82956e-07 115.844 6.4889e-07 114.336 7.14825e-07C112.78 7.82846e-07 111.233 8.50452e-07 109.286 9.35583e-07C106.927 10.3372 104.598 20.5987 102.183 31.2008C101.323 30.0564 100.636 29.1106 99.9295 28.2027C93.5427 19.9934 82.9934 16.7022 74.0002 20.0691C70.8497 21.2513 68.4152 23.2469 66.9736 26.2355C62.0856 36.3836 63.1453 46.314 68.8067 55.7433C70.1432 57.9659 72.7591 59.4224 75.0599 61.4747C72.6063 63.6405 69.9236 66.1184 67.1168 68.4544C64.5965 70.554 61.8851 72.436 59.3648 74.5262C58.0473 75.6138 56.7107 76.815 55.8133 78.2242C53.6079 81.6667 55.3073 85.743 59.317 86.7076C60.8827 87.0859 62.5821 87.086 64.205 87.0387C75.7282 86.651 86.5352 83.3503 97.1323 79.1227C103.634 76.5218 110.164 73.9588 116.751 71.6038C118.183 71.0931 119.949 71.5187 121.563 71.5092C120.971 72.9941 120.675 74.6965 119.749 75.9355C115.472 81.6763 110.097 86.1592 103.825 89.7436C85.0555 100.459 64.6919 104.233 43.3164 103.826C42.3808 103.807 41.4452 103.476 40.5096 103.457C39.364 103.429 37.7506 103.164 37.1682 103.769C36.4617 104.507 36.013 106.474 36.519 107.183C37.7601 108.933 39.3544 110.749 41.2352 111.676C49.6078 115.818 58.5914 116.868 67.8329 115.885C84.4063 114.116 99.3376 107.94 113.152 98.9459C120.532 94.1319 126.088 87.6819 128.924 79.3497C130.107 75.8503 130.432 71.9915 130.68 68.2652C130.842 65.7873 128.78 64.5579 126.546 63.9526C120.608 62.3637 114.67 62.638 108.818 64.2836C98.8221 67.102 88.8647 70.0812 78.8882 72.9658C78.0099 73.2211 77.1029 73.3346 76.2055 73.5048C76.1291 73.3818 76.0623 73.2589 75.9954 73.1265Z" fill="#2916C8"/>
<path d="M159.312 49.4699C157.286 56.8248 155.24 63.8931 153.425 71.0283C152.923 73.0055 152.875 75.1737 153.001 77.2274C153.474 84.8879 160.075 90.2751 167.68 88.7182C171.173 88.0018 174.831 86.5308 177.639 84.3912C183.111 80.2362 188.168 75.5176 193.148 70.7799C197.501 66.6345 201.37 61.9923 205.723 57.8468C211.552 52.2973 218.105 47.8557 226.395 46.7286C233.923 45.7066 237.551 48.2474 238.68 55.6405C239.182 58.9454 240.225 62.5081 236.808 65.259C236.441 65.5551 236.847 67.4559 237.455 68.1341C240.302 71.3053 244.934 70.3024 246.797 66.1282C248.968 61.276 249.026 56.1657 248.119 51.046C246.498 41.9336 240.36 36.3554 231.066 35.2569C224.349 34.4642 217.999 35.7919 211.793 38.2276C202.818 41.7618 194.876 46.9388 187.464 52.9946C183.295 56.4046 179.029 59.7095 174.802 63.0622C174.599 62.938 174.406 62.8234 174.204 62.6992C174.474 61.8682 174.705 61.0276 175.005 60.2157C176.327 56.6338 177.958 53.1378 178.942 49.4699C180.93 42.0673 177.089 36.5847 169.436 35.4194C165.971 34.894 162.458 34.6266 159.042 33.8911C152.557 32.4966 150.009 29.2681 150.057 22.6965C150.105 15.7428 151.717 9.12346 154.825 2.86707C155.24 2.03607 155.606 1.18597 156.157 0.0111078C151.302 0.011108 146.776 -0.0367111 142.259 0.0683583C141.709 0.07791 140.908 0.813408 140.667 1.39606C137.202 9.70608 135.34 18.3504 136.459 27.3195C137.724 37.4444 143.485 44.2929 153.232 47.722C155.269 48.448 157.411 48.9255 159.312 49.4699Z" fill="#FEEE5F"/>
<path d="M263.193 0.0594312C262.325 0.0594312 261.485 0.0594313 260.636 0.0594313C237.241 0.0594323 213.847 0.0888269 190.462 0.000474781C188.376 -0.00934214 187.517 0.668104 186.81 2.65114C185.677 5.81222 184.186 8.84567 182.714 11.8497C179.534 18.3387 182.921 24.1994 189.877 23.5613C207.279 21.9709 224.68 20.2923 242.026 18.1914C246.414 17.6613 250.84 15.8942 254.851 13.8523C259.843 11.3195 262.646 5.99872 263.193 0.0594312Z" fill="black"/>
<path d="M12.9751 49.0338C10.904 50.2819 8.38349 51.1864 6.84971 52.8596C3.12761 56.9296 1.05652 61.8497 0.13821 67.1226C-0.731257 72.1603 2.57078 75.1722 8.09043 74.313C16.0426 73.0829 23.9753 71.7262 31.9178 70.4148C37.1541 69.5556 42.3904 68.6873 47.617 67.8009C48.3986 67.6653 49.1801 67.4664 49.9128 67.195C53.0683 66.0554 54.729 63.7219 54.4164 60.9453C54.1136 58.232 51.8666 56.2422 48.506 55.8262C45.7804 55.4825 43.0547 55.184 40.3095 54.9489C32.074 54.2525 23.9069 53.3118 16.2478 50.1553C15.3783 49.7935 14.3623 49.7574 13.4147 49.5675C13.2779 49.3866 13.1314 49.2057 12.9751 49.0338Z" fill="#FE6A46"/>
<path d="M26.3958 25.4423C26.226 25.4423 26.0373 25.3974 25.8863 25.4513C19.4999 27.3732 13.2455 29.6005 8.26463 34.064C6.3402 35.7973 7.33071 38.8509 9.96264 39.3897C12.8776 39.9825 15.8774 40.3148 18.8584 40.5393C25.0845 41.0243 31.32 41.3925 37.5555 41.7517C39.9328 41.8864 42.0176 41.2667 43.0836 39.0035C44.1307 36.7762 43.3571 34.7915 41.7723 33.139C37.6405 28.8282 32.3294 26.547 26.3958 25.4423Z" fill="black"/>
<path d="M48.0047 9.0802C44.2171 9.54045 40.3821 9.79404 36.6607 10.583C35.2309 10.8836 33.5265 12.1704 32.9015 13.4666C32.002 15.3076 33.9431 16.2752 35.3351 17.0736C37.8539 18.5201 40.3442 20.0416 42.9956 21.1969C45.7605 22.3992 47.5407 21.7888 49.2073 19.2997C50.3814 17.5338 51.4041 15.6458 52.3037 13.7296C53.4305 11.2781 51.6409 9.6062 48.0047 9.0802Z" fill="black"/>
<path d="M29.0422 129.406C29.0139 126.042 28.166 123.649 25.6412 122.338C23.2106 121.076 20.9872 121.707 18.9712 123.469C18.5095 123.869 18.0291 124.25 17.5674 124.65C14.7883 127.083 13.865 130.197 14.9861 133.33C16.0695 136.344 18.9147 138.206 22.1178 138.005C25.3869 137.805 27.7798 135.673 28.6559 132.099C28.9103 131.058 28.9668 129.956 29.0422 129.406Z" fill="black"/>
<path d="M61.9269 9.08097C59.7792 9.12335 58.0068 11.3377 58.0866 13.891C58.1585 16.2853 59.6515 18.1394 61.5357 18.1606C63.6434 18.1818 65.3759 15.9887 65.344 13.34C65.3121 10.9139 63.8111 9.04918 61.9269 9.08097Z" fill="black"/>
<path d="M-4 687.145C1.66984 685.996 7.28853 684.402 13.0181 683.784C25.5173 682.455 35.7145 687.154 43.5158 697.006C48.8617 703.754 51.6838 711.729 54.1137 719.866C34.7937 719.866 15.4736 719.866 -3.99148 719.866C-4 708.959 -4 698.052 -4 687.145Z" fill="#2916C8"/>
<path d="M223.835 719.866C228.083 717.49 232.339 715.105 236.587 712.729C236.783 712.426 236.979 712.113 237.184 711.81C236.473 711.402 235.697 711.082 235.051 710.579C231.53 707.83 228.001 705.09 224.546 702.254C214.964 694.389 215.233 682.232 225.379 675.165C228.271 673.153 231.759 671.809 235.149 670.976C236.979 670.526 239.381 671.427 241.162 672.442C243.057 673.517 243.515 675.824 242.837 678.07C242.24 680.047 240.925 680.879 238.875 681.191C234.904 681.807 231.988 684.426 230.134 688.102C229.692 688.978 230.085 690.825 230.73 691.692C231.947 693.331 233.663 694.545 235.1 696.019C238.768 699.774 242.624 703.373 245.982 707.422C249.094 711.186 249.192 715.565 246.554 719.857C238.981 719.866 231.408 719.866 223.835 719.866Z" fill="black"/>
<path d="M164.85 719.866C164.341 717.387 163.718 714.934 163.346 712.438C162.126 704.162 165.101 697.549 171.294 692.651C179.104 686.472 187.86 685.708 196.72 689.51C200.496 691.132 203.851 693.975 207.126 696.632C208.468 697.719 209.292 699.697 209.996 701.42C210.643 702.999 210.23 704.663 208.84 705.775C207.53 706.827 206.293 706.157 204.951 705.545C201.474 703.967 198.014 702.125 194.36 701.233C186.994 699.442 179.015 703.415 175.061 710.206C173.275 713.279 173.727 716.572 174.115 719.866C171.019 719.866 167.93 719.866 164.85 719.866Z" fill="black"/>
<path d="M90.4348 719.866C96.8472 706.185 103.242 692.505 109.698 678.843C110.989 676.112 112.454 673.46 113.996 670.879C115.955 667.586 118.927 666.462 121.734 667.744C124.429 668.973 125.694 671.959 124.473 675.497C122.159 682.188 119.663 688.809 117.046 695.385C113.788 703.586 110.339 711.708 106.968 719.857C101.457 719.866 95.946 719.866 90.4348 719.866Z" fill="#FE6A46"/>
<path d="M-4 671.462C6.71752 667.856 17.2123 663.396 28.4867 661.904C30.3715 661.652 32.3676 661.814 34.2524 662.164C36.1457 662.515 37.3965 663.918 37.705 665.995C37.9962 667.973 37.2937 669.645 35.6831 670.589C33.6613 671.776 31.5709 673.062 29.352 673.629C18.8572 676.299 8.31101 678.745 -2.21803 681.271C-2.81773 681.406 -3.40887 681.586 -4 681.748C-4 678.322 -4 674.887 -4 671.462Z" fill="#FEEE5F"/>
<path d="M121.308 719.866C124.711 710.805 128.114 701.735 131.517 692.673C131.87 691.738 132.269 690.828 132.622 689.901C133.373 687.952 134.635 686.913 136.498 687.259C138.369 687.606 139.368 689.087 139.443 691.175C139.503 692.795 139.481 694.519 139.09 696.052C137.272 703.112 135.304 710.129 133.403 717.163C133.163 718.047 132.982 718.956 132.772 719.857C128.948 719.866 125.124 719.866 121.308 719.866Z" fill="#FE6A46"/>
<path d="M177.605 719.866C179.939 713.404 184.418 709.173 191.008 707.371C193.706 706.63 196.235 707.915 197.161 710.066C197.865 711.699 197.793 713.083 196.119 714.296C193.742 716.019 191.542 718 189.262 719.866C185.371 719.866 181.488 719.866 177.605 719.866Z" fill="black"/>
<path d="M269.963 685.539C273.781 682.784 277.599 680.048 281.4 677.267C282.8 676.239 284.106 675.076 285.489 674.031C287.457 672.558 289.587 672.067 291.801 673.294C294.033 674.531 294.805 676.712 294.813 679.276C294.813 679.839 294.813 680.412 295.297 681.248C296.213 679.63 297.342 678.112 298.012 676.385C299.819 671.758 303.001 670.358 307.548 670.322C330.668 670.14 353.788 669.695 376.908 669.349C380.607 669.295 384.307 669.231 388.006 669.267C389.228 669.277 390.475 669.468 391.654 669.804C393.902 670.44 395.387 672.458 395.523 674.803C395.65 677.149 394.445 679.348 392.223 680.221C390.797 680.775 389.236 681.112 387.717 681.184C378.02 681.657 368.322 682.23 358.616 682.384C342.589 682.639 326.553 682.657 310.518 682.639C308.27 682.639 306.785 683.348 305.444 685.239C303.586 687.866 301.533 690.347 299.463 692.783C298.487 693.929 297.35 694.983 296.137 695.837C292.489 698.383 288.399 697.301 286.244 693.238C285.498 691.829 285.022 690.256 284.369 688.629C281.934 690.22 279.669 691.965 277.2 693.247C273.891 694.965 270.531 696.81 266.993 697.728C260.146 699.51 255.811 694.383 258.152 687.311C259.841 682.203 262.208 677.348 264.329 672.404C264.643 671.676 265.177 671.013 265.729 670.458C267.231 668.94 269.012 668.622 270.854 669.604C272.635 670.558 273.424 672.322 273.068 674.358C272.763 676.112 272.075 677.812 271.473 679.494C270.82 681.321 270.064 683.112 269.36 684.911C269.564 685.12 269.759 685.329 269.963 685.539Z" fill="#FE6A46"/>
<path d="M217.522 660.378C217.522 663.323 217.422 666.275 217.546 669.211C217.721 673.265 215.998 676.628 213.767 679.649C212.943 680.767 211.129 681.586 209.705 681.68C204.903 681.996 200.2 681.219 195.763 679.179C188.055 675.638 184.875 668.392 187.706 660.19C190.844 651.11 197.578 645.597 205.885 641.799C206.709 641.423 207.566 641.116 208.382 640.715C211.82 639.017 215.249 640.408 216.273 644.206C216.872 646.425 216.947 648.789 217.23 651.084C217.305 651.699 217.313 652.322 217.322 652.945C217.33 655.42 217.322 657.903 217.322 660.378C217.397 660.378 217.455 660.378 217.522 660.378ZM204.861 654.703C201.656 657.954 198.901 661.001 197.844 665.149C197.553 666.293 197.844 668.272 198.61 668.887C200.283 670.227 202.439 670.935 204.853 672.121C204.861 665.926 204.861 660.575 204.861 654.703Z" fill="#2916C8"/>
<path d="M57.7472 664.979C57.6555 659.366 62.1197 656.934 66.851 658.739C71.7242 660.595 76.7642 662.048 81.8293 663.277C84.8917 664.016 88.1293 664.033 91.2919 664.282C94.6881 664.549 97.0662 668.253 95.2638 671.184C90.5576 678.816 85.6677 686.337 80.5776 693.703C78.5166 696.685 76.7726 696.702 73.4014 695.594C69.5129 694.313 67.1264 691.468 65.7078 687.824C63.3964 681.893 61.3771 675.842 59.2659 669.826C58.6151 667.995 58.0977 666.122 57.7472 664.979Z" fill="black"/>
<path d="M361.991 707.141C355.056 707.141 348.113 707.203 341.179 707.102C339.196 707.071 337.128 706.776 335.266 706.193C333.112 705.518 331.962 703.833 331.97 701.736C331.987 699.724 333.112 698.125 335.137 697.41C336.845 696.804 338.742 696.377 340.561 696.362C353.417 696.261 366.282 696.238 379.138 696.315C382.082 696.331 385.034 696.781 387.952 697.201C389.231 697.387 390.724 697.721 391.582 698.49C392.647 699.429 393.805 700.936 393.711 702.109C393.616 703.281 392.252 704.858 391.007 705.355C388.999 706.155 386.639 706.489 384.425 706.535C376.95 706.667 369.466 706.589 361.991 706.589C361.991 706.768 361.991 706.954 361.991 707.141Z" fill="black"/>
<path d="M426.889 703.432C425.282 704.949 423.848 706.45 422.274 707.776C420.619 709.161 418.684 709.584 416.627 708.688C414.824 707.909 413.578 706.433 413.701 704.526C413.808 702.918 414.447 701.152 415.365 699.817C418.02 695.929 421.004 692.264 423.717 688.417C425.881 685.341 428.413 683.086 432.405 683.65C436.355 684.205 438.519 686.933 439.601 690.531C440.265 692.737 440.74 695.075 440.839 697.38C441.011 701.508 440.921 705.662 440.789 709.799C440.683 713.348 438.945 715.578 436.15 716.125C433.38 716.672 430.364 715.155 429.167 712.071C428.143 709.435 427.692 706.574 426.889 703.432Z" fill="black"/>
<path d="M444.022 663.644C442.433 665.801 441.219 667.499 439.947 669.139C439.312 669.963 438.635 670.804 437.821 671.411C436.443 672.435 434.871 672.502 433.469 671.47C432.084 670.446 431.456 668.872 432.117 667.257C434.569 661.28 436.892 655.212 439.784 649.459C442.221 644.598 448.308 644.057 451.649 648.36C453.523 650.766 454.9 653.796 455.74 656.768C457.141 661.763 458.021 666.916 458.95 672.036C459.635 675.798 457.817 678.87 454.713 679.719C451.616 680.56 448.455 678.879 447.183 675.332C446.197 672.577 445.611 669.671 444.853 666.833C444.625 665.984 444.405 665.126 444.022 663.644Z" fill="#FEEE5F"/>
</svg>
