<svg width="103" height="598" viewBox="0 0 103 598" fill="none" xmlns="http://www.w3.org/2000/svg">
<path d="M103 303.793C99.9356 298.308 96.8601 292.812 93.7959 287.326C93.4045 287.073 93.0019 286.82 92.6105 286.556C92.0849 287.474 91.6712 288.476 91.0225 289.309C87.4775 293.856 83.9436 298.413 80.2867 302.875C70.1436 315.249 54.4647 314.901 45.3505 301.799C42.756 298.065 41.0225 293.561 39.949 289.183C39.3674 286.82 40.5305 283.719 41.8389 281.419C43.2256 278.972 46.2004 278.381 49.0968 279.256C51.6466 280.026 52.7201 281.725 53.1227 284.373C53.9167 289.499 57.2941 293.265 62.0357 295.66C63.1652 296.23 65.5473 295.723 66.6656 294.89C68.7792 293.318 70.3449 291.103 72.246 289.246C77.0883 284.51 81.7293 279.531 86.9518 275.195C91.8053 271.176 97.4529 271.049 102.989 274.457C103 284.235 103 294.014 103 303.793Z" fill="white"/>
<path d="M103 379.961C99.8031 380.619 96.6393 381.423 93.4207 381.903C82.7469 383.48 74.2189 379.638 67.9022 371.641C59.9324 361.555 58.9471 350.249 63.8516 338.807C65.9426 333.931 69.61 329.599 73.0365 325.37C74.4378 323.637 76.9885 322.572 79.2109 321.664C81.2471 320.829 83.3928 321.361 84.8269 323.157C86.1844 324.848 85.3196 326.446 84.5314 328.179C82.4951 332.668 80.1195 337.136 78.97 341.855C76.6601 351.366 81.7835 361.67 90.5415 366.776C94.5045 369.083 98.7521 368.498 103 367.997C103 371.996 103 375.984 103 379.961Z" fill="white"/>
<path d="M103 476.055C85.3568 467.774 67.7139 459.516 50.0937 451.18C46.572 449.513 43.1521 447.622 39.8228 445.63C35.5763 443.101 34.1268 439.263 35.7801 435.637C37.3655 432.157 41.2157 430.524 45.7793 432.101C54.4082 435.089 62.9465 438.312 71.4282 441.691C82.0049 445.898 92.4796 450.352 102.988 454.705C103 461.822 103 468.938 103 476.055Z" fill="white"/>
<path d="M103 436.188C91.3138 431.794 79.6168 427.399 67.9309 423.005C66.7243 422.549 65.5512 422.034 64.3558 421.579C61.8421 420.608 60.5015 418.979 60.9484 416.573C61.3953 414.157 63.3057 412.867 65.9981 412.77C68.0873 412.692 70.3105 412.721 72.288 413.226C81.3931 415.574 90.4424 418.115 99.5141 420.57C100.654 420.88 101.827 421.113 102.989 421.385C103 426.322 103 431.26 103 436.188Z" fill="white"/>
<path d="M103 363.49C94.6661 360.477 89.2102 354.693 86.8852 346.184C85.9298 342.699 87.5872 339.434 90.3612 338.238C92.4676 337.329 94.2518 337.421 95.8172 339.583C98.0387 342.653 100.594 345.494 103 348.438C103 353.463 103 358.477 103 363.49Z" fill="white"/>
<path d="M58.7292 244.228C55.1772 239.298 51.6485 234.368 48.0613 229.459C46.7366 227.652 45.236 225.964 43.8879 224.179C41.9888 221.637 41.3557 218.887 42.9383 216.027C44.5326 213.146 47.3462 212.149 50.6521 212.138C51.3789 212.138 52.1174 212.138 53.1959 211.513C51.1093 210.33 49.1515 208.873 46.9242 208.007C40.9572 205.674 39.1518 201.565 39.1049 195.693C38.8705 165.838 38.2961 135.983 37.8506 106.128C37.7802 101.351 37.6982 96.574 37.745 91.7972C37.7568 90.2195 38.003 88.609 38.4367 87.0861C39.2573 84.1827 41.8598 82.2654 44.8844 82.0902C47.9089 81.9258 50.7458 83.4815 51.8712 86.352C52.5863 88.1926 53.0201 90.2085 53.1139 92.1697C53.7235 104.692 54.462 117.215 54.6613 129.749C54.9896 150.445 55.013 171.151 54.9896 191.858C54.9896 194.762 55.904 196.679 58.3424 198.41C61.7303 200.809 64.9307 203.461 68.0724 206.134C69.5495 207.394 70.9095 208.862 72.0114 210.429C75.2939 215.14 73.8988 220.421 68.6586 223.203C66.8415 224.168 64.8134 224.781 62.715 225.625C64.7665 228.769 67.0174 231.694 68.6703 234.883C70.886 239.155 73.2657 243.494 74.4498 248.063C76.7475 256.904 70.1357 262.503 61.0152 259.479C54.4269 257.299 48.1668 254.242 41.7895 251.503C40.8516 251.097 39.9958 250.407 39.2807 249.695C37.323 247.756 36.9127 245.455 38.1788 243.078C39.4097 240.777 41.684 239.758 44.31 240.218C46.5725 240.613 48.7647 241.5 50.9334 242.278C53.2897 243.121 55.5992 244.097 57.9203 245.006C58.19 244.743 58.4596 244.491 58.7292 244.228Z" fill="white"/>
<path d="M26.2808 311.946C30.078 311.946 33.8863 312.075 37.6725 311.914C42.9005 311.688 47.237 313.913 51.1333 316.794C52.5752 317.858 53.6318 320.201 53.7529 322.039C54.1601 328.241 53.1585 334.314 50.528 340.043C45.9603 349.996 36.6158 354.102 26.0387 350.448C14.3278 346.396 7.21761 337.7 2.31974 326.973C1.83546 325.909 1.43928 324.801 0.921973 323.748C-1.26831 319.309 0.525705 314.88 5.42357 313.558C8.28524 312.784 11.334 312.688 14.2948 312.322C15.0872 312.225 15.8907 312.215 16.6941 312.204C19.886 312.193 23.0889 312.204 26.2808 312.204C26.2808 312.107 26.2808 312.032 26.2808 311.946ZM18.9615 328.295C23.155 332.433 27.0843 335.991 32.4334 337.356C33.9083 337.732 36.4618 337.356 37.2542 336.367C38.9822 334.207 39.8957 331.423 41.4256 328.306C33.435 328.295 26.534 328.295 18.9615 328.295Z" fill="white"/>
<path d="M32.2137 518.265C24.9755 518.383 21.8386 512.619 24.1663 506.509C26.5606 500.216 28.4338 493.708 30.0189 487.167C30.9722 483.213 30.9944 479.032 31.3158 474.948C31.6595 470.563 36.4369 467.492 40.2167 469.819C50.0597 475.896 59.7587 482.211 69.2581 488.784C73.1045 491.445 73.1266 493.697 71.6967 498.05C70.0451 503.072 66.3761 506.153 61.6763 507.985C54.028 510.97 46.2245 513.578 38.4653 516.304C36.1043 517.144 33.6879 517.812 32.2137 518.265Z" fill="white"/>
<path d="M86.5889 125.391C86.5889 134.345 86.6691 143.311 86.5389 152.265C86.4988 154.825 86.1182 157.496 85.367 159.901C84.4957 162.683 82.3224 164.168 79.6182 164.157C77.0243 164.135 74.9611 162.683 74.0397 160.067C73.2585 157.862 72.7077 155.413 72.6876 153.063C72.5574 136.462 72.5274 119.849 72.6276 103.248C72.6476 99.4469 73.2285 95.6346 73.7693 91.8666C74.0097 90.2153 74.4403 88.287 75.4318 87.1788C76.6437 85.8046 78.5866 84.3084 80.099 84.4303C81.6113 84.5522 83.6444 86.3143 84.2854 87.9213C85.317 90.5145 85.7476 93.5622 85.8077 96.4214C85.978 106.074 85.8778 115.738 85.8778 125.391C86.1082 125.391 86.3486 125.391 86.5889 125.391Z" fill="white"/>
<path d="M81.8057 41.5872C83.7624 43.6616 85.6978 45.5138 87.4086 47.5459C89.1942 49.6839 89.7395 52.1816 88.5847 54.8382C87.5796 57.1667 85.6763 58.7754 83.2171 58.6167C81.1427 58.4791 78.8652 57.6535 77.1438 56.4681C72.129 53.0389 67.4029 49.1864 62.4416 45.6831C58.4747 42.889 55.5664 39.6186 56.2935 34.4642C57.0099 29.3628 60.5277 26.5686 65.1682 25.1716C68.0124 24.3143 71.0277 23.7004 74.0002 23.5734C79.325 23.3511 84.682 23.4676 90.0175 23.6369C94.5939 23.7745 97.4701 26.0182 98.1758 29.6274C98.8815 33.2047 96.9248 37.0996 92.9472 38.6449C89.547 39.9678 85.8581 40.5499 81.8057 41.5872Z" fill="white"/>
<path d="M30.4932 19.463C33.2738 21.5149 35.464 23.0827 37.579 24.7243C38.6418 25.545 39.7261 26.4184 40.5099 27.4706C41.8304 29.2489 41.9163 31.2798 40.585 33.0897C39.2645 34.8785 37.2354 35.6887 35.1526 34.8364C27.4442 31.6691 19.6176 28.6702 12.199 24.9347C5.9292 21.7885 5.23135 13.9282 10.7819 9.61394C13.8846 7.19376 17.7925 5.41544 21.6252 4.33162C28.0668 2.52175 34.7124 1.38531 41.3151 0.185748C46.1677 -0.698143 50.1293 1.64839 51.2244 5.65747C52.3087 9.65602 50.1401 13.7387 45.5665 15.3803C42.0129 16.6535 38.266 17.4111 34.6051 18.3897C33.51 18.6843 32.4042 18.9684 30.4932 19.463Z" fill="white"/>
</svg>
