<svg width="462" height="721" viewBox="0 0 462 721" fill="none" xmlns="http://www.w3.org/2000/svg">
<path d="M79.7462 73.1265C81.4403 71.6984 83.2295 70.3744 84.7999 68.8233C86.5034 67.1399 88.2927 65.428 89.5013 63.4041C91.6617 59.8197 90.396 56.4715 86.6177 54.6746C86.1513 54.4571 85.6755 54.1923 85.1806 54.1072C79.8795 53.1709 77.7096 49.5108 76.5485 44.7252C75.4635 40.2612 75.6063 35.8539 76.5485 31.4467C77.1861 28.4864 78.5376 27.6541 81.6212 28.0608C86.9508 28.7606 90.7291 32.0236 93.2606 36.3079C95.678 40.4125 97.2103 45.0373 99.0947 49.4446C99.7323 50.9389 100.094 52.575 100.855 53.9937C102.15 56.3959 104.7 57.5309 107.165 57.0958C109.773 56.6324 111.657 54.5895 112.076 51.7711C114.627 34.7001 117.253 17.6479 122.459 1.11594C122.535 0.879503 122.497 0.614754 122.526 7.44264e-06C120.975 7.51066e-06 119.471 7.5766e-06 117.967 7.64253e-06C116.416 7.71055e-06 114.874 7.77816e-06 112.933 7.86329e-06C110.582 10.3372 108.26 20.5988 105.852 31.2008C104.995 30.0564 104.31 29.1106 103.606 28.2027C97.2388 19.9934 86.7224 16.7022 77.7572 20.0691C74.6165 21.2513 72.1896 23.2469 70.7525 26.2355C65.8797 36.3836 66.9362 46.314 72.5799 55.7433C73.9123 57.9659 76.5199 59.4224 78.8136 61.4747C76.3677 63.6405 73.6933 66.1184 70.8953 68.4545C68.3828 70.554 65.6799 72.436 63.1674 74.5262C61.854 75.6138 60.5216 76.815 59.6269 78.2242C57.4285 81.6667 59.1226 85.743 63.1198 86.7076C64.6806 87.0859 66.3747 87.086 67.9926 87.0387C79.4798 86.651 90.2532 83.3503 100.817 79.1227C107.298 76.5218 113.808 73.9588 120.375 71.6038C121.803 71.0931 123.563 71.5187 125.172 71.5092C124.582 72.9941 124.287 74.6965 123.363 75.9355C119.1 81.6763 113.742 86.1592 107.489 89.7436C88.7781 100.459 68.4779 104.233 47.169 103.826C46.2363 103.807 45.3036 103.476 44.371 103.457C43.2289 103.429 41.6205 103.164 41.0399 103.769C40.3357 104.507 39.8884 106.474 40.3928 107.183C41.63 108.933 43.2194 110.749 45.0943 111.676C53.4408 115.818 62.3965 116.868 71.6091 115.885C88.1309 114.116 103.016 107.94 116.787 98.9459C124.144 94.1319 129.683 87.6819 132.509 79.3497C133.69 75.8503 134.013 71.9915 134.261 68.2652C134.422 65.7873 132.367 64.5579 130.14 63.9526C124.22 62.3637 118.3 62.638 112.466 64.2836C102.502 67.102 92.5754 70.0812 82.63 72.9658C81.7544 73.2211 80.8503 73.3346 79.9557 73.5048C79.8795 73.3819 79.8129 73.2589 79.7462 73.1265Z" fill="#0A6ACF"/>
<path d="M162.804 49.47C160.783 56.8248 158.744 63.8931 156.935 71.0283C156.435 73.0055 156.387 75.1738 156.512 77.2274C156.983 84.8879 163.564 90.2751 171.145 88.7182C174.627 88.0018 178.274 86.5308 181.073 84.3912C186.528 80.2362 191.57 75.5176 196.534 70.7799C200.873 66.6345 204.731 61.9923 209.07 57.8468C214.881 52.2973 221.413 47.8557 229.677 46.7286C237.181 45.7066 240.799 48.2474 241.924 55.6405C242.425 58.9454 243.464 62.5081 240.058 65.259C239.692 65.5551 240.097 67.4559 240.703 68.1341C243.541 71.3053 248.159 70.3024 250.016 66.1282C252.18 61.276 252.238 56.1657 251.334 51.046C249.717 41.9336 243.598 36.3554 234.334 35.2569C227.638 34.4642 221.307 35.7919 215.121 38.2276C206.174 41.7618 198.256 46.9388 190.867 52.9946C186.711 56.4046 182.459 59.7095 178.245 63.0622C178.043 62.938 177.85 62.8234 177.648 62.6992C177.918 61.8682 178.149 61.0276 178.447 60.2157C179.765 56.6338 181.391 53.1378 182.372 49.4699C184.354 42.0673 180.525 36.5847 172.896 35.4194C169.442 34.894 165.94 34.6266 162.534 33.8911C156.069 32.4966 153.529 29.2681 153.577 22.6965C153.625 15.7428 155.232 9.12347 158.33 2.86708C158.744 2.03607 159.109 1.18598 159.658 0.0111134C154.818 0.0111136 150.306 -0.0367056 145.804 0.0683638C145.255 0.0779156 144.457 0.813414 144.216 1.39607C140.762 9.70609 138.906 18.3504 140.022 27.3195C141.282 37.4444 147.026 44.2929 156.743 47.722C158.773 48.448 160.908 48.9255 162.804 49.47Z" fill="#FFD357"/>
<path d="M266.361 0.0594341C265.495 0.0594341 264.658 0.0594341 263.811 0.0594342C240.49 0.0594352 217.168 0.0888297 193.856 0.000477648C191.777 -0.00933927 190.921 0.668106 190.215 2.65114C189.086 5.81222 187.6 8.84567 186.132 11.8497C182.962 18.3387 186.339 24.1994 193.273 23.5613C210.62 21.9709 227.968 20.2923 245.259 18.1914C249.634 17.6613 254.046 15.8942 258.044 13.8523C263.021 11.3195 265.815 5.99873 266.361 0.0594341Z" fill="black"/>
<path d="M16.9222 49.0338C14.8576 50.2819 12.3449 51.1864 10.8159 52.8596C7.10544 56.9296 5.04081 61.8497 4.12535 67.1226C3.2586 72.1603 6.55034 75.1722 12.0528 74.313C19.9802 73.0829 27.8882 71.7262 35.8059 70.4148C41.0259 69.5556 46.246 68.6873 51.4563 67.8009C52.2354 67.6653 53.0144 67.4664 53.7449 67.195C56.8905 66.0554 58.5461 63.7219 58.2345 60.9453C57.9326 58.232 55.6926 56.2422 52.3425 55.8262C49.6253 55.4825 46.9082 55.184 44.1715 54.9489C35.9617 54.2525 27.82 53.3118 20.1847 50.1553C19.318 49.7935 18.3052 49.7574 17.3605 49.5675C17.2241 49.3866 17.0781 49.2057 16.9222 49.0338Z" fill="#FC704F"/>
<path d="M30.3011 25.4423C30.1319 25.4423 29.9437 25.3974 29.7933 25.4513C23.4267 27.3732 17.1918 29.6005 12.2265 34.064C10.308 35.7973 11.2954 38.8509 13.9192 39.3897C16.825 39.9825 19.8155 40.3148 22.7872 40.5393C28.9939 41.0243 35.21 41.3925 41.4261 41.7517C43.7959 41.8864 45.8743 41.2667 46.9369 39.0035C47.9808 36.7762 47.2096 34.7915 45.6298 33.139C41.5108 28.8282 36.2163 26.547 30.3011 25.4423Z" fill="black"/>
<path d="M51.8427 9.0802C48.0669 9.54045 44.2438 9.79404 40.5341 10.583C39.1087 10.8836 37.4096 12.1704 36.7866 13.4666C35.8898 15.3076 37.8249 16.2752 39.2125 17.0736C41.7235 18.5201 44.2061 20.0416 46.8491 21.1969C49.6055 22.3992 51.3801 21.7888 53.0415 19.2997C54.212 17.5338 55.2315 15.6458 56.1283 13.7296C57.2516 11.2781 55.4675 9.6062 51.8427 9.0802Z" fill="black"/>
<path d="M32.9393 129.406C32.9111 126.042 32.0659 123.649 29.5489 122.338C27.1259 121.076 24.9094 121.707 22.8996 123.469C22.4394 123.869 21.9605 124.25 21.5003 124.65C18.7298 127.083 17.8094 130.197 18.927 133.33C20.007 136.344 22.8433 138.206 26.0365 138.005C29.2953 137.805 31.6808 135.673 32.5542 132.099C32.8078 131.058 32.8641 129.956 32.9393 129.406Z" fill="black"/>
<path d="M65.7215 9.08097C63.5806 9.12335 61.8137 11.3377 61.8933 13.891C61.9649 16.2853 63.4532 18.1394 65.3316 18.1606C67.4327 18.1818 69.1598 15.9887 69.128 13.34C69.0961 10.9139 67.5999 9.04918 65.7215 9.08097Z" fill="black"/>
<path d="M227.125 720.866C231.36 718.49 235.603 716.105 239.838 713.729C240.033 713.426 240.229 713.113 240.432 712.81C239.724 712.402 238.95 712.082 238.307 711.579C234.797 708.83 231.279 706.09 227.834 703.254C218.281 695.389 218.55 683.232 228.665 676.165C231.547 674.153 235.025 672.809 238.404 671.976C240.229 671.526 242.623 672.427 244.398 673.442C246.287 674.517 246.744 676.824 246.068 679.07C245.473 681.047 244.162 681.879 242.118 682.191C238.16 682.807 235.253 685.426 233.404 689.102C232.964 689.978 233.355 691.825 233.999 692.692C235.212 694.331 236.922 695.545 238.356 697.019C242.012 700.774 245.856 704.373 249.203 708.422C252.306 712.186 252.403 716.565 249.773 720.857C242.224 720.866 234.675 720.866 227.125 720.866Z" fill="black"/>
<path d="M168.324 720.866C167.816 718.387 167.196 715.934 166.825 713.438C165.608 705.162 168.574 698.549 174.748 693.651C182.533 687.472 191.262 686.708 200.095 690.51C203.859 692.132 207.204 694.975 210.468 697.632C211.806 698.719 212.628 700.697 213.329 702.42C213.974 703.999 213.563 705.663 212.177 706.775C210.871 707.827 209.638 707.157 208.3 706.545C204.834 704.967 201.385 703.125 197.742 702.233C190.399 700.442 182.445 704.415 178.503 711.206C176.722 714.279 177.174 717.572 177.56 720.866C174.474 720.866 171.395 720.866 168.324 720.866Z" fill="black"/>
<path d="M94.1406 720.866C100.533 707.185 106.908 693.505 113.344 679.843C114.631 677.112 116.091 674.46 117.629 671.879C119.581 668.586 122.544 667.462 125.343 668.744C128.029 669.973 129.29 672.959 128.072 676.497C125.766 683.188 123.278 689.809 120.669 696.385C117.421 704.586 113.983 712.708 110.623 720.857C105.129 720.866 99.6347 720.866 94.1406 720.866Z" fill="#FC704F"/>
<path d="M-4.23134e-07 672.462C10.6841 668.856 21.1462 664.396 32.3855 662.904C34.2644 662.652 36.2543 662.814 38.1332 663.164C40.0207 663.515 41.2676 664.918 41.575 666.995C41.8654 668.973 41.1651 670.645 39.5595 671.589C37.5439 672.776 35.4601 674.062 33.2481 674.629C22.786 677.299 12.2727 679.745 1.77642 682.271C1.17858 682.406 0.589292 682.586 -8.7276e-07 682.748C-7.23016e-07 679.322 -5.72878e-07 675.887 -4.23134e-07 672.462Z" fill="#FFD357"/>
<path d="M124.917 720.866C128.31 711.805 131.702 702.735 135.095 693.673C135.447 692.738 135.844 691.828 136.196 690.901C136.945 688.952 138.203 687.913 140.06 688.259C141.925 688.606 142.921 690.087 142.996 692.175C143.056 693.795 143.034 695.519 142.644 697.052C140.832 704.112 138.87 711.129 136.975 718.163C136.735 719.047 136.555 719.956 136.346 720.857C132.534 720.866 128.722 720.866 124.917 720.866Z" fill="#FC704F"/>
<path d="M181.04 720.866C183.366 714.404 187.831 710.173 194.4 708.371C197.09 707.63 199.611 708.915 200.534 711.066C201.236 712.699 201.165 714.083 199.496 715.296C197.126 717.019 194.933 719 192.66 720.866C188.781 720.866 184.91 720.866 181.04 720.866Z" fill="black"/>
<path d="M273.109 686.539C276.915 683.784 280.721 681.048 284.511 678.267C285.906 677.239 287.209 676.076 288.587 675.031C290.549 673.558 292.672 673.067 294.88 674.294C297.104 675.531 297.874 677.712 297.883 680.276C297.883 680.839 297.883 681.412 298.365 682.248C299.278 680.63 300.403 679.112 301.071 677.385C302.873 672.758 306.044 671.358 310.578 671.322C333.626 671.14 356.674 670.695 379.722 670.349C383.409 670.295 387.097 670.231 390.785 670.267C392.003 670.277 393.246 670.468 394.422 670.804C396.663 671.44 398.143 673.458 398.278 675.803C398.405 678.149 397.204 680.348 394.988 681.221C393.567 681.775 392.011 682.112 390.497 682.184C380.83 682.657 371.162 683.23 361.486 683.384C345.509 683.639 329.524 683.657 313.538 683.639C311.297 683.639 309.817 684.348 308.48 686.239C306.628 688.866 304.581 691.347 302.517 693.783C301.545 694.929 300.411 695.983 299.202 696.837C295.565 699.383 291.488 698.301 289.34 694.238C288.596 692.829 288.122 691.256 287.471 689.629C285.043 691.22 282.785 692.965 280.324 694.247C277.025 695.965 273.676 697.81 270.149 698.728C263.323 700.51 259.001 695.383 261.336 688.311C263.019 683.203 265.379 678.348 267.493 673.404C267.806 672.676 268.339 672.013 268.889 671.458C270.386 669.94 272.162 669.622 273.997 670.604C275.773 671.558 276.56 673.322 276.205 675.358C275.9 677.112 275.215 678.812 274.615 680.494C273.963 682.321 273.211 684.112 272.509 685.911C272.712 686.12 272.906 686.329 273.109 686.539Z" fill="#FC704F"/>
<path d="M220.831 661.378C220.831 664.323 220.732 667.275 220.856 670.211C221.031 674.265 219.313 677.628 217.089 680.649C216.268 681.767 214.459 682.586 213.04 682.68C208.252 682.996 203.563 682.219 199.141 680.179C191.457 676.638 188.287 669.392 191.108 661.19C194.237 652.11 200.95 646.597 209.231 642.799C210.052 642.423 210.907 642.116 211.72 641.715C215.147 640.017 218.566 641.408 219.587 645.206C220.184 647.425 220.259 649.789 220.541 652.084C220.616 652.699 220.624 653.322 220.632 653.945C220.641 656.42 220.632 658.903 220.632 661.378C220.707 661.378 220.765 661.378 220.831 661.378ZM208.21 655.703C205.016 658.954 202.269 662.001 201.215 666.149C200.925 667.293 201.215 669.272 201.979 669.887C203.646 671.227 205.796 671.935 208.202 673.121C208.21 666.926 208.21 661.575 208.21 655.703Z" fill="#0A6ACF"/>
<path d="M61.5549 665.979C61.4634 660.366 65.9137 657.934 70.6303 659.739C75.4883 661.595 80.5126 663.048 85.5619 664.277C88.6148 665.016 91.8423 665.033 94.995 665.282C98.3806 665.549 100.751 669.253 98.9546 672.184C94.263 679.816 89.3884 687.337 84.3141 694.703C82.2595 697.685 80.5209 697.702 77.1603 696.594C73.2839 695.313 70.9048 692.468 69.4906 688.824C67.1864 682.893 65.1734 676.842 63.0688 670.826C62.42 668.995 61.9042 667.122 61.5549 665.979Z" fill="black"/>
<path d="M364.851 708.141C357.938 708.141 351.016 708.203 344.104 708.102C342.127 708.071 340.065 707.776 338.209 707.193C336.062 706.518 334.915 704.833 334.924 702.736C334.941 700.724 336.062 699.125 338.081 698.41C339.783 697.804 341.674 697.377 343.488 697.362C356.304 697.261 369.128 697.238 381.945 697.315C384.879 697.331 387.822 697.781 390.731 698.201C392.006 698.387 393.494 698.721 394.35 699.49C395.411 700.429 396.566 701.936 396.472 703.109C396.378 704.281 395.017 705.858 393.777 706.355C391.775 707.155 389.422 707.489 387.215 707.535C379.763 707.667 372.303 707.589 364.851 707.589C364.851 707.768 364.851 707.954 364.851 708.141Z" fill="black"/>
<path d="M429.546 704.432C427.945 705.949 426.515 707.45 424.946 708.776C423.296 710.161 421.368 710.584 419.317 709.688C417.519 708.909 416.277 707.433 416.4 705.526C416.506 703.918 417.143 702.152 418.058 700.817C420.706 696.929 423.68 693.264 426.384 689.417C428.541 686.341 431.066 684.086 435.045 684.65C438.983 685.205 441.141 687.933 442.219 691.531C442.881 693.737 443.355 696.075 443.453 698.38C443.624 702.508 443.535 706.662 443.404 710.799C443.298 714.348 441.565 716.578 438.779 717.125C436.018 717.672 433.011 716.155 431.818 713.071C430.796 710.435 430.347 707.574 429.546 704.432Z" fill="black"/>
<path d="M446.626 664.644C445.042 666.801 443.832 668.499 442.564 670.139C441.931 670.963 441.257 671.804 440.444 672.411C439.071 673.435 437.504 673.502 436.106 672.47C434.725 671.446 434.1 669.872 434.758 668.257C437.203 662.28 439.518 656.212 442.402 650.459C444.831 645.598 450.899 645.057 454.229 649.36C456.098 651.766 457.471 654.796 458.307 657.768C459.705 662.763 460.582 667.916 461.508 673.036C462.19 676.798 460.379 679.87 457.284 680.719C454.197 681.56 451.045 679.879 449.778 676.332C448.795 673.577 448.21 670.671 447.455 667.833C447.227 666.984 447.008 666.126 446.626 664.644Z" fill="#FFD357"/>
<path d="M36.7744 689.028C36.5546 689.028 36.3103 688.956 36.1149 689.042C27.8465 692.1 19.7491 695.643 13.3005 702.743C10.809 705.5 12.0914 710.358 15.4989 711.215C19.2728 712.158 23.1566 712.686 27.016 713.044C35.0767 713.815 43.1497 714.401 51.2227 714.972C54.3004 715.187 56.9996 714.201 58.3797 710.6C59.7354 707.057 58.7339 703.9 56.6821 701.272C51.3326 694.414 44.4566 690.785 36.7744 689.028Z" fill="#0A6ACF"/>
</svg>
