<svg width="103" height="598" viewBox="0 0 103 598" fill="none" xmlns="http://www.w3.org/2000/svg">
<path d="M-5.03678e-07 294.207C3.06419 299.692 6.13961 305.188 9.20381 310.674C9.59522 310.927 9.99781 311.18 10.3892 311.444C10.9148 310.526 11.3286 309.524 11.9772 308.691C15.5223 304.144 19.0561 299.587 22.713 295.125C32.8562 282.751 48.535 283.099 57.6493 296.201C60.2438 299.935 61.9772 304.439 63.0508 308.817C63.6323 311.18 62.4693 314.282 61.1608 316.581C59.7741 319.029 56.7994 319.619 53.903 318.744C51.3532 317.974 50.2796 316.275 49.877 313.628C49.083 308.501 45.7057 304.735 40.964 302.34C39.8345 301.771 37.4525 302.277 36.3342 303.11C34.2205 304.682 32.6549 306.897 30.7538 308.754C25.9114 313.49 21.2705 318.469 16.0479 322.805C11.1944 326.824 5.54687 326.951 0.0111923 323.543C9.56385e-06 313.765 -9.30578e-07 303.986 -5.03678e-07 294.207Z" fill="white"/>
<path d="M2.13094e-05 218.039C3.19668 217.381 6.3605 216.577 9.57905 216.097C20.2528 214.52 28.7809 218.362 35.0976 226.359C43.0673 236.445 44.0526 247.751 39.1482 259.193C37.0572 264.069 33.3898 268.401 29.9632 272.63C28.5619 274.363 26.0112 275.428 23.7889 276.336C21.7527 277.171 19.607 276.639 18.1728 274.843C16.8154 273.152 17.6802 271.554 18.4684 269.821C20.5046 265.332 22.8802 260.864 24.0297 256.145C26.3396 246.634 21.2162 236.33 12.4582 231.224C8.49526 228.917 4.24764 229.502 2.07871e-05 230.003C2.09617e-05 226.004 2.11358e-05 222.016 2.13094e-05 218.039Z" fill="white"/>
<path d="M0.000154815 121.945C17.643 130.226 35.2858 138.484 52.906 146.82C56.4278 148.487 59.8477 150.378 63.1769 152.37C67.4234 154.899 68.8729 158.737 67.2196 162.363C65.6342 165.843 61.7841 167.476 57.2205 165.899C48.5916 162.911 40.0532 159.688 31.5715 156.309C20.9949 152.102 10.5202 147.648 0.0114888 143.295C0.000165113 136.178 0.000154505 129.062 0.000154815 121.945Z" fill="white"/>
<path d="M2.0484e-05 161.812C11.6859 166.206 23.383 170.601 35.0689 174.995C36.2755 175.451 37.4485 175.966 38.6439 176.421C41.1576 177.392 42.4983 179.021 42.0514 181.427C41.6045 183.843 39.6941 185.133 37.0016 185.23C34.9125 185.308 32.6892 185.279 30.7118 184.774C21.6066 182.426 12.5573 179.885 3.48567 177.43C2.34613 177.12 1.17309 176.887 0.0112027 176.615C3.09637e-05 171.678 2.02689e-05 166.74 2.0484e-05 161.812Z" fill="white"/>
<path d="M0.000145158 234.51C8.33362 237.523 13.7895 243.307 16.1146 251.816C17.07 255.301 15.4125 258.566 12.6385 259.762C10.5321 260.671 8.74798 260.579 7.18257 258.417C4.96108 255.347 2.4058 252.506 0.000144501 249.562C0.00014472 244.537 0.000144939 239.524 0.000145158 234.51Z" fill="white"/>
<path d="M44.2706 353.772C47.8226 358.702 51.3513 363.633 54.9386 368.541C56.2633 370.349 57.7638 372.036 59.1119 373.822C61.0111 376.363 61.6441 379.113 60.0615 381.973C58.4672 384.854 55.6536 385.851 52.3477 385.862C51.6209 385.862 50.8824 385.862 49.8039 386.487C51.8906 387.67 53.8483 389.127 56.0756 389.993C62.0427 392.326 63.848 396.435 63.8949 402.307C64.1293 432.162 64.7038 462.017 65.1492 491.873C65.2196 496.649 65.3017 501.426 65.2548 506.203C65.2431 507.781 64.9968 509.391 64.5631 510.914C63.7425 513.817 61.14 515.735 58.1154 515.91C55.0909 516.074 52.254 514.519 51.1286 511.648C50.4135 509.808 49.9797 507.792 49.8859 505.83C49.2763 493.308 48.5378 480.785 48.3385 468.251C48.0102 447.555 47.9868 426.849 48.0102 406.142C48.0102 403.238 47.0958 401.321 44.6575 399.59C41.2695 397.191 38.0691 394.539 34.9274 391.866C33.4503 390.606 32.0904 389.138 30.9884 387.571C27.706 382.86 29.101 377.58 34.3412 374.797C36.1583 373.833 38.1864 373.219 40.2848 372.375C38.2333 369.231 35.9824 366.306 34.3295 363.118C32.1138 358.845 29.7341 354.506 28.5501 349.938C26.2524 341.096 32.8641 335.498 41.9846 338.521C48.5729 340.702 54.833 343.758 61.2103 346.497C62.1482 346.903 63.004 347.593 63.7191 348.305C65.6768 350.244 66.0871 352.545 64.821 354.922C63.5901 357.223 61.3158 358.242 58.6899 357.782C56.4273 357.388 54.2352 356.5 52.0664 355.722C49.7101 354.879 47.4006 353.904 45.0795 352.994C44.8098 353.257 44.5402 353.509 44.2706 353.772Z" fill="white"/>
<path d="M76.719 286.054C72.9218 286.054 69.1135 285.925 65.3273 286.086C60.0992 286.312 55.7627 284.087 51.8664 281.206C50.4246 280.142 49.368 277.799 49.2469 275.961C48.8397 269.759 49.8412 263.686 52.4718 257.957C57.0394 248.004 66.3839 243.898 76.9611 247.552C88.6719 251.604 95.7821 260.3 100.68 271.027C101.164 272.091 101.56 273.199 102.078 274.252C104.268 278.691 102.474 283.12 97.5762 284.442C94.7145 285.216 91.6657 285.312 88.705 285.678C87.9125 285.775 87.1091 285.785 86.3056 285.796C83.1137 285.807 79.9108 285.796 76.719 285.796C76.719 285.893 76.719 285.968 76.719 286.054ZM84.0382 269.705C79.8448 265.567 75.9155 262.009 70.5663 260.644C69.0915 260.268 66.538 260.644 65.7455 261.633C64.0175 263.793 63.104 266.577 61.5741 269.694C69.5648 269.705 76.4658 269.705 84.0382 269.705Z" fill="white"/>
<path d="M70.7861 79.7351C78.0243 79.6165 81.1612 85.3813 78.8334 91.4909C76.4392 97.7837 74.5659 104.292 72.9808 110.833C72.0276 114.787 72.0054 118.968 71.6839 123.052C71.3403 127.437 66.5629 130.508 62.7831 128.181C52.94 122.104 43.2411 115.789 33.7416 109.216C29.8953 106.555 29.8731 104.303 31.303 99.9495C32.9546 94.9282 36.6236 91.8465 41.3235 90.0147C48.9718 87.0299 56.7753 84.4223 64.5345 81.6962C66.8955 80.8557 69.3118 80.1876 70.7861 79.7351Z" fill="white"/>
<path d="M16.4108 472.609C16.4108 463.655 16.3307 454.689 16.4609 445.735C16.5009 443.175 16.8816 440.504 17.6327 438.099C18.504 435.317 20.6774 433.832 23.3815 433.843C25.9755 433.865 28.0387 435.317 28.9601 437.933C29.7413 440.138 30.2921 442.587 30.3121 444.937C30.4423 461.538 30.4724 478.151 30.3722 494.752C30.3522 498.553 29.7713 502.365 29.2304 506.133C28.9901 507.785 28.5594 509.713 27.5679 510.821C26.3561 512.195 24.4131 513.692 22.9008 513.57C21.3885 513.448 19.3553 511.686 18.7143 510.079C17.6827 507.485 17.2521 504.438 17.192 501.579C17.0218 491.926 17.1219 482.262 17.1219 472.609C16.8916 472.609 16.6512 472.609 16.4108 472.609Z" fill="white"/>
<path d="M21.1941 556.413C19.2374 554.339 17.302 552.486 15.5912 550.454C13.8056 548.316 13.2603 545.818 14.4151 543.162C15.4201 540.833 17.3234 539.225 19.7827 539.383C21.857 539.521 24.1345 540.347 25.856 541.532C30.8707 544.961 35.5968 548.814 40.5581 552.317C44.525 555.111 47.4334 558.382 46.7063 563.536C45.9899 568.637 42.4721 571.431 37.8315 572.829C34.9874 573.686 31.9721 574.3 28.9996 574.427C23.6747 574.649 18.3178 574.533 12.9822 574.363C8.40586 574.226 5.52965 571.982 4.82395 568.373C4.11825 564.795 6.07492 560.901 10.0525 559.355C13.4527 558.032 17.1417 557.45 21.1941 556.413Z" fill="white"/>
<path d="M72.5066 578.537C69.726 576.485 67.5358 574.917 65.4208 573.276C64.3579 572.455 63.2736 571.582 62.4899 570.53C61.1694 568.751 61.0835 566.72 62.4147 564.91C63.7353 563.122 65.7644 562.311 67.8471 563.164C75.5556 566.331 83.3821 569.33 90.8007 573.065C97.0706 576.212 97.7684 584.072 92.2179 588.386C89.1152 590.806 85.2073 592.585 81.3745 593.669C74.9329 595.478 68.2873 596.615 61.6847 597.814C56.832 598.698 52.8704 596.352 51.7754 592.343C50.691 588.344 52.8597 584.261 57.4332 582.62C60.9868 581.347 64.7337 580.589 68.3947 579.61C69.4898 579.316 70.5956 579.032 72.5066 578.537Z" fill="white"/>
</svg>
