<svg width="19" height="15" viewBox="0 0 19 15" fill="none" xmlns="http://www.w3.org/2000/svg">
<path fill-rule="evenodd" clip-rule="evenodd" d="M0.192702 3.87589C-0.0874415 6.46266 -0.074954 9.44605 0.314869 12.0223C0.530567 13.4478 1.70124 14.5407 3.14631 14.6655L4.65654 14.796C7.80558 15.068 10.9724 15.068 14.1215 14.796L15.6317 14.6655C17.0768 14.5407 18.2475 13.4478 18.4632 12.0223C18.853 9.44604 18.8655 6.46283 18.5853 3.87605C18.5491 3.57615 18.5084 3.27667 18.4632 2.97768C18.2475 1.55217 17.0768 0.459341 15.6317 0.334502L14.1215 0.204034C10.9724 -0.0680113 7.80558 -0.0680111 4.65654 0.204034L3.14631 0.334502C1.70124 0.459341 0.530567 1.55217 0.314869 2.97768C0.269637 3.27661 0.228914 3.57605 0.192702 3.87589ZM4.78644 1.68914C7.84905 1.42456 10.929 1.42456 13.9916 1.68914L15.5018 1.81961C16.2562 1.88478 16.8672 2.45524 16.9798 3.19935C16.9915 3.27663 17.0029 3.35394 17.014 3.43129L11.453 6.5016C10.1694 7.21029 8.60859 7.21029 7.325 6.50159L1.76406 3.43132C1.77512 3.35397 1.7865 3.27664 1.79819 3.19935C1.91079 2.45524 2.52188 1.88478 3.27621 1.81961L4.78644 1.68914ZM17.1975 5.03525C17.3915 7.28896 17.3189 9.55966 16.9798 11.8006C16.8672 12.5448 16.2562 13.1152 15.5018 13.1804L13.9916 13.3109C10.929 13.5754 7.84905 13.5754 4.78644 13.3109L3.27621 13.1804C2.52188 13.1152 1.91079 12.5448 1.79819 11.8006C1.4591 9.55967 1.38654 7.28898 1.58051 5.03529L6.59653 7.80471C8.33316 8.76353 10.4448 8.76353 12.1814 7.80471L17.1975 5.03525Z" fill="#F2F2F2"/>
</svg>
