<svg width="19" height="19" viewBox="0 0 19 19" fill="none" xmlns="http://www.w3.org/2000/svg">
<path d="M6.48903 4.95145C6.66358 4.95614 6.85709 4.96562 7.0412 5.3759C7.16329 5.64903 7.36896 6.15185 7.53649 6.56145C7.66686 6.88018 7.77414 7.14246 7.80098 7.19615C7.86233 7.31874 7.90009 7.46019 7.81986 7.62521C7.8104 7.64468 7.80147 7.66329 7.79287 7.68122C7.72851 7.8153 7.68271 7.91072 7.57449 8.0355C7.52999 8.08677 7.48364 8.14301 7.43745 8.19904C7.35623 8.29758 7.27552 8.39548 7.20635 8.46465C7.08367 8.58716 6.9562 8.7193 7.09776 8.96449C7.23941 9.20967 7.73494 10.0161 8.46644 10.6668C9.25286 11.3697 9.93671 11.6659 10.2824 11.8157C10.3495 11.8447 10.4039 11.8683 10.4438 11.8882C10.6892 12.0108 10.8355 11.9919 10.977 11.8269C11.1187 11.6618 11.5906 11.1101 11.7558 10.8649C11.9162 10.6197 12.0814 10.6574 12.308 10.7423C12.5345 10.8272 13.7426 11.4213 13.988 11.5439C14.0365 11.5682 14.0818 11.59 14.1239 11.6103C14.2946 11.6925 14.4107 11.7483 14.4599 11.8316C14.5213 11.9353 14.5213 12.4258 14.3183 13.0011C14.1107 13.5764 13.1102 14.1281 12.6571 14.1706C12.6142 14.1746 12.5716 14.1798 12.5276 14.1851C12.1124 14.2356 11.5854 14.2996 9.70756 13.5575C7.39372 12.6441 5.86633 10.3776 5.55752 9.91943C5.53314 9.88325 5.51636 9.85835 5.50738 9.84627L5.50216 9.83925C5.36166 9.65052 4.50215 8.49592 4.50215 7.30465C4.50215 6.16489 5.06141 5.57151 5.3165 5.30085C5.33267 5.2837 5.34761 5.26784 5.36111 5.25323C5.58761 5.00804 5.85194 4.94675 6.01709 4.94675C6.18232 4.94675 6.34747 4.94675 6.48903 4.95145Z" fill="#F2F2F2"/>
<path fill-rule="evenodd" clip-rule="evenodd" d="M0.0954716 18.5148C0.0174173 18.7992 0.275467 19.0617 0.559808 18.9872L4.95526 17.8346C6.34273 18.5891 7.90484 18.9899 9.4953 18.9899H9.5C14.7337 18.9899 19 14.7317 19 9.49734C19 6.96033 18.0136 4.57417 16.2203 2.78219C14.427 0.990284 12.0437 0 9.49992 0C4.26631 0 6.05139e-07 4.25822 6.05139e-07 9.49264C-0.00059414 11.1578 0.437219 12.7939 1.26949 14.2365L0.0954716 18.5148ZM2.64911 14.6181C2.75101 14.2467 2.70011 13.8499 2.50781 13.5165C1.8017 12.2925 1.43051 10.9045 1.43102 9.49264C1.43102 5.05846 5.04984 1.43663 9.49992 1.43663C11.6654 1.43663 13.6857 2.27657 15.2108 3.80042C16.734 5.32259 17.569 7.34225 17.569 9.49734C17.569 13.9314 13.9502 17.5533 9.5 17.5533H9.4953C8.14392 17.5533 6.81595 17.2126 5.63683 16.5714C5.31769 16.3978 4.94479 16.3525 4.59362 16.4446L1.95825 17.1356L2.64911 14.6181Z" fill="#F2F2F2"/>
</svg>
